<?xml version="1.0" encoding="utf-8"?>
<!-- Generator: Adobe Illustrator 18.0.0, SVG Export Plug-In . SVG Version: 6.00 Build 0)  -->
<!DOCTYPE svg PUBLIC "-//W3C//DTD SVG 1.1//EN" "http://www.w3.org/Graphics/SVG/1.1/DTD/svg11.dtd">
<svg version="1.1" id="Layer_1" xmlns="http://www.w3.org/2000/svg" xmlns:xlink="http://www.w3.org/1999/xlink" x="0px" y="0px"
	 viewBox="0 0 700 520" enable-background="new 0 0 700 520" xml:space="preserve">
<g>
	<g opacity="0.5">
		<circle fill="#78869F" stroke="#78869F" stroke-miterlimit="10" cx="172.2" cy="56.8" r="39.1"/>
		<path fill="#78869F" stroke="#78869F" stroke-miterlimit="10" d="M166.8,344.1v136.1c-0.2,24.7-37,24.7-37.3,0V344.1H81.3
			L133,162.2h-8.4L94.5,265.8c-7.6,22.9-38.6,13.6-31.3-10.8l33.7-112c3.9-12.9,20.1-35.6,48.2-36.1h54.2
			c27.3,0.6,43.6,23.5,48.2,36.1l45.4,115.8c6.8,24.4-23.9,34.3-31.3,10.8l-41.8-107.3h-9.6l53,181.9h-49.4v136.1
			c0.4,24.7-36.3,24.6-36.1,0V344.1H166.8z"/>
	</g>
	<g opacity="0.5">
		<circle fill="#78869F" stroke="#78869F" stroke-miterlimit="10" cx="394.7" cy="46.6" r="40.1"/>
		<path fill="#78869F" stroke="#78869F" stroke-miterlimit="10" d="M487.9,274.9v-124c0-25.9-20.5-52.8-51.8-52.8h-79.8
			c-25.9,0-36.7,14-46.4,43.1l-47.6,118.9c-7.5,22.6,24.8,33.4,32.3,10.8l45.4-110.3h4.3v313.7c0,33.4,46.4,32.3,46.4,0V292.1h6.5
			v182.2c1.1,32.3,47.4,33.4,47.4,0V160.6h8.6v114.3C453.4,298.6,487.9,298.6,487.9,274.9z"/>
	</g>
</g>
<g>
	<g>
		<circle fill="#78869F" stroke="#78869F" stroke-miterlimit="10" cx="71.9" cy="248.2" r="23.5"/>
		<path fill="#78869F" stroke="#78869F" stroke-miterlimit="10" d="M68.6,420.6v81.7c-0.1,14.8-22.2,14.8-22.4,0v-81.7H17.3
			l31.1-109.1h-5.1l-18.1,62.1c-4.6,13.7-23.2,8.2-18.8-6.5l20.2-67.2c2.3-7.7,12.1-21.3,28.9-21.7h32.5
			c16.4,0.3,26.1,14.1,28.9,21.7l27.3,69.5c4.1,14.6-14.3,20.6-18.8,6.5l-25.1-64.4h-5.8l31.8,109.1H96.8v81.7
			c0.2,14.8-21.8,14.8-21.7,0v-81.7H68.6z"/>
	</g>
	<g>
		<circle fill="#78869F" stroke="#78869F" stroke-miterlimit="10" cx="205.4" cy="242.1" r="24.1"/>
		<path fill="#78869F" stroke="#78869F" stroke-miterlimit="10" d="M261.3,379.1v-74.4c0-15.5-12.3-31.7-31-31.7h-47.9
			c-15.5,0-22,8.4-27.8,25.9L126,370.2c-4.5,13.6,14.9,20.1,19.4,6.5l27.3-66.2h2.6v188.2c0,20.1,27.8,19.4,27.8,0V389.4h3.9v109.3
			c0.6,19.4,28.5,20.1,28.5,0V310.5h5.2v68.6C240.6,393.3,261.3,393.3,261.3,379.1z"/>
	</g>
</g>
<g>
	<g>
		<ellipse fill="#FFFFFF" stroke="#78869F" stroke-width="5" stroke-miterlimit="10" cx="646.6" cy="316.3" rx="17.9" ry="25"/>
		<rect x="621.8" y="325" fill="#FFFFFF" stroke="#FFFFFF" stroke-miterlimit="10" width="73" height="33.4"/>
	</g>
	<line fill="#78869F" stroke="#78869F" stroke-width="5" stroke-miterlimit="10" x1="628.5" y1="313" x2="628.5" y2="495"/>
</g>
<g>
	<g>
		<circle fill="#78869F" stroke="#78869F" stroke-miterlimit="10" cx="452.1" cy="162.8" r="29.6"/>
		<path fill="#78869F" stroke="#78869F" stroke-miterlimit="10" d="M448,379.9v102.9c-0.2,18.7-28,18.7-28.2,0V379.9h-36.4
			l39.2-137.5h-6.4l-22.8,78.3c-5.8,17.3-29.2,10.3-23.7-8.2l25.5-84.7c2.9-9.7,15.2-26.9,36.4-27.3h41
			c20.6,0.4,32.9,17.7,36.4,27.3l34.4,87.5c5.2,18.4-18.1,26-23.7,8.2l-31.6-81.1h-7.3l40.1,137.5h-37.3v102.9
			c0.3,18.7-27.4,18.6-27.3,0V379.9H448z"/>
	</g>
	<g>
		<circle fill="#78869F" stroke="#78869F" stroke-miterlimit="10" cx="564.9" cy="116.6" r="33.7"/>
		<path fill="#78869F" stroke="#78869F" stroke-miterlimit="10" d="M643.2,308.3V204.2c0-21.7-17.2-44.4-43.5-44.4h-67
			c-21.7,0-30.8,11.8-38.9,36.2l-40,99.9c-6.3,19,20.8,28.1,27.2,9.1l38.2-92.6h3.6v263.5c0,28.1,38.9,27.2,38.9,0V322.8h5.4v153.1
			c0.9,27.2,39.8,28.1,39.8,0V212.3h7.2v96C614.3,328.3,643.2,328.3,643.2,308.3z"/>
	</g>
</g>
</svg>
