<?xml version="1.0" encoding="utf-8"?>
<!-- Generator: Adobe Illustrator 18.0.0, SVG Export Plug-In . SVG Version: 6.00 Build 0)  -->
<!DOCTYPE svg PUBLIC "-//W3C//DTD SVG 1.1//EN" "http://www.w3.org/Graphics/SVG/1.1/DTD/svg11.dtd">
<svg version="1.1" id="Layer_1" xmlns="http://www.w3.org/2000/svg" xmlns:xlink="http://www.w3.org/1999/xlink" x="0px" y="0px"
	 viewBox="0 0 700 520" enable-background="new 0 0 700 520" xml:space="preserve">
<g opacity="0.5">
	<g opacity="0.5">
		<circle fill="#78869F" stroke="#78869F" stroke-miterlimit="10" cx="257.7" cy="202.7" r="27.9"/>
		<path fill="#78869F" stroke="#78869F" stroke-miterlimit="10" d="M253.9,407.4v97c-0.1,17.6-26.4,17.6-26.6,0v-97H193l36.8-129.6
			h-6l-21.4,73.8c-5.4,16.3-27.5,9.7-22.3-7.7l24-79.8c2.8-9.2,14.3-25.4,34.3-25.7h38.6c19.5,0.4,31.1,16.7,34.3,25.7l32.3,82.5
			c4.8,17.4-17,24.4-22.3,7.7l-29.8-76.5h-6.8l37.8,129.6h-35.2v97c0.3,17.6-25.9,17.5-25.7,0v-97H253.9z"/>
	</g>
	<g opacity="0.5">
		<circle fill="#78869F" stroke="#78869F" stroke-miterlimit="10" cx="416.3" cy="195.5" r="28.6"/>
		<path fill="#78869F" stroke="#78869F" stroke-miterlimit="10" d="M482.7,358.1v-88.4c0-18.5-14.6-37.6-36.9-37.6h-56.9
			c-18.5,0-26.1,10-33.1,30.7l-33.9,84.7c-5.3,16.1,17.7,23.8,23,7.7l32.3-78.6h3.1v223.5c0,23.8,33.1,23,33.1,0V370.4h4.6v129.8
			c0.8,23,33.8,23.8,33.8,0V276.7h6.1v81.4C458.1,375,482.7,375,482.7,358.1z"/>
	</g>
</g>
<g opacity="0.5">
	<g>
		<circle fill="#78869F" stroke="#78869F" stroke-miterlimit="10" cx="38.3" cy="319.5" r="17.6"/>
		<path fill="#78869F" stroke="#78869F" stroke-miterlimit="10" d="M35.8,448.8V510c-0.1,11.1-16.6,11.1-16.8,0v-61.3H-2.7
			l23.3-81.8h-3.8L3.2,413.5c-3.5,10.3-17.4,6.1-14.1-4.9l15.2-50.4c1.7-5.8,9.1-16,21.7-16.3h24.4c12.3,0.2,19.6,10.6,21.7,16.3
			l20.5,52.1c3.1,11-10.7,15.5-14.1,4.9l-18.8-48.3h-4.4l23.8,81.8H56.9V510c0.1,11.1-16.4,11.1-16.3,0v-61.3L35.8,448.8L35.8,448.8
			z"/>
	</g>
	<g>
		<circle fill="#78869F" stroke="#78869F" stroke-miterlimit="10" cx="138.4" cy="314.9" r="18.1"/>
		<path fill="#78869F" stroke="#78869F" stroke-miterlimit="10" d="M180.3,417.6v-55.8c0-11.6-9.2-23.8-23.2-23.8h-35.9
			c-11.6,0-16.5,6.3-20.9,19.4L78.8,411c-3.4,10.2,11.2,15.1,14.5,4.9l20.5-49.6h2v141.1c0,15.1,20.9,14.6,20.9,0v-82h2.9v82
			c0.5,14.6,21.4,15.1,21.4,0V366.2h3.9v51.5C164.8,428.3,180.3,428.3,180.3,417.6z"/>
	</g>
</g>
<g opacity="0.5">
	<g>
		<ellipse fill="#FFFFFF" stroke="#78869F" stroke-width="5" stroke-miterlimit="10" cx="683.5" cy="398.6" rx="13.4" ry="16.6"/>
		<rect x="664.9" y="404.4" fill="#FFFFFF" stroke="#FFFFFF" stroke-miterlimit="10" width="54.8" height="22.2"/>
	</g>
	<line fill="none" stroke="#78869F" stroke-width="5" stroke-miterlimit="10" x1="669.9" y1="396.4" x2="669.9" y2="517.4"/>
</g>
<g opacity="0.5">
	<g>
		<circle fill="#78869F" stroke="#78869F" stroke-miterlimit="10" cx="537.6" cy="268.2" r="22.2"/>
		<path fill="#78869F" stroke="#78869F" stroke-miterlimit="10" d="M534.6,431.1v77.2c-0.1,14-21,14-21.1,0v-77.2h-27.3l29.4-103.1
			h-4.8l-17.1,58.7c-4.4,13-21.9,7.7-17.8-6.1L495,317c2.2-7.3,11.4-20.2,27.3-20.5H553c15.5,0.3,24.7,13.3,27.3,20.5l25.8,65.6
			c3.9,13.8-13.6,19.5-17.8,6.2l-23.7-60.8h-5.5l30.1,103.1h-28v77.2c0.2,14-20.6,13.9-20.5,0v-77.2H534.6z"/>
	</g>
	<g>
		<circle fill="#78869F" stroke="#78869F" stroke-miterlimit="10" cx="622.2" cy="233.6" r="25.3"/>
		<path fill="#78869F" stroke="#78869F" stroke-miterlimit="10" d="M681,377.4v-78.1c0-16.3-12.9-33.3-32.6-33.3h-50.2
			c-16.3,0-23.1,8.9-29.2,27.1l-30,74.9c-4.7,14.2,15.6,21.1,20.4,6.8l28.6-69.5h2.7v197.6c0,21.1,29.2,20.4,29.2,0V388.2h4.1v114.8
			c0.7,20.4,29.8,21.1,29.8,0V305.4h5.4v72C659.3,392.4,681,392.4,681,377.4z"/>
	</g>
</g>
</svg>
