<?xml version="1.0" encoding="utf-8"?>
<!-- Generator: Adobe Illustrator 18.0.0, SVG Export Plug-In . SVG Version: 6.00 Build 0)  -->
<!DOCTYPE svg PUBLIC "-//W3C//DTD SVG 1.1//EN" "http://www.w3.org/Graphics/SVG/1.1/DTD/svg11.dtd">
<svg version="1.1" id="Layer_1" xmlns="http://www.w3.org/2000/svg" xmlns:xlink="http://www.w3.org/1999/xlink" x="0px" y="0px"
	 viewBox="0 0 400 520" enable-background="new 0 0 400 520" xml:space="preserve">
<path fill="#78869F" d="M36.7,493.3v-175h-35V190c0-25.7,21-46.7,46.7-46.7h70c25.7,0,46.7,21,46.7,46.7v128.3h-35v175H36.7z
	 M328.3,493.3v-140h70l-59.5-178.5c-5.8-18.7-24.5-31.5-44.3-31.5h-2.3c-19.8,0-37.3,12.8-44.3,31.5l-59.5,178.5h70v140H328.3z
	 M83.3,120C109,120,130,99,130,73.3s-21-46.7-46.7-46.7s-46.7,21-46.7,46.7S57.7,120,83.3,120z M293.3,120C319,120,340,99,340,73.3
	s-21-46.7-46.7-46.7c-25.7,0-46.7,21-46.7,46.7S267.7,120,293.3,120z"/>
</svg>
