<?xml version="1.0" encoding="utf-8"?>
<!-- Generator: Adobe Illustrator 18.0.0, SVG Export Plug-In . SVG Version: 6.00 Build 0)  -->
<!DOCTYPE svg PUBLIC "-//W3C//DTD SVG 1.1//EN" "http://www.w3.org/Graphics/SVG/1.1/DTD/svg11.dtd">
<svg version="1.1" id="Layer_1" xmlns="http://www.w3.org/2000/svg" xmlns:xlink="http://www.w3.org/1999/xlink" x="0px" y="0px"
	 viewBox="0 0 700 520" enable-background="new 0 0 700 520" xml:space="preserve">
<path opacity="0.5" fill="#78869F" d="M186.7,493.3v-175h-35V190c0-25.7,21-46.7,46.7-46.7h70c25.7,0,46.7,21,46.7,46.7v128.3h-35
	v175H186.7z M478.3,493.3v-140h70l-59.5-178.5c-5.8-18.7-24.5-31.5-44.3-31.5h-2.3c-19.8,0-37.3,12.8-44.3,31.5l-59.5,178.5h70v140
	H478.3z M233.3,120C259,120,280,99,280,73.3s-21-46.7-46.7-46.7s-46.7,21-46.7,46.7S207.7,120,233.3,120z M443.3,120
	C469,120,490,99,490,73.3s-21-46.7-46.7-46.7s-46.7,21-46.7,46.7S417.7,120,443.3,120z"/>
<rect fill="none" width="696" height="520"/>
</svg>
