<?xml version="1.0" encoding="utf-8"?>
<!-- Generator: Adobe Illustrator 18.0.0, SVG Export Plug-In . SVG Version: 6.00 Build 0)  -->
<!DOCTYPE svg PUBLIC "-//W3C//DTD SVG 1.1//EN" "http://www.w3.org/Graphics/SVG/1.1/DTD/svg11.dtd">
<svg version="1.1" id="Layer_1" xmlns="http://www.w3.org/2000/svg" xmlns:xlink="http://www.w3.org/1999/xlink" x="0px" y="0px"
	 viewBox="0 0 700 520" enable-background="new 0 0 700 520" xml:space="preserve">
<path opacity="0.5" fill="#788B9A" d="M314,404.3c2.2,5.8-57.5,59.1-22.7,102.2c8.1,10.1,35.8-48.3,75-74.8
	c21.6-14.6,72-45.7,72-62.9V257.7c0-20.7-79.9-42.5-140.5-42.5c-22.2,0-54.5,139.4-54.5,161.5C243.3,398.9,311.9,398.5,314,404.3z
	 M454.5,402.8c10.7,0,48.8-6.5,48.8-50.7v-78.8c0-44.2-38.1-49.1-48.8-49.1c-10.7,0,16.2,9.3,16.2,36.7v103.6
	C470.8,393.2,443.8,402.8,454.5,402.8z"/>
<path opacity="0.5" fill="#788B9A" d="M267,113.4c-2.2-5.8,57.5-59.1,22.7-102.2c-8.1-10.1-35.8,48.3-75,74.8
	c-21.6,14.6-72,45.7-72,62.8V260c0,20.7,79.9,42.5,140.5,42.5c22.2,0,54.5-139.4,54.5-161.5C337.7,118.8,269.1,119.2,267,113.4z
	 M126.5,114.9c-10.7,0-48.8,6.5-48.8,50.7v78.8c0,44.2,38.1,49.1,48.8,49.1c10.7,0-16.2-9.3-16.2-36.7V153.3
	C110.2,124.5,137.1,114.9,126.5,114.9z"/>
</svg>
