<?xml version="1.0" encoding="utf-8"?>
<!-- Generator: Adobe Illustrator 18.0.0, SVG Export Plug-In . SVG Version: 6.00 Build 0)  -->
<!DOCTYPE svg PUBLIC "-//W3C//DTD SVG 1.1//EN" "http://www.w3.org/Graphics/SVG/1.1/DTD/svg11.dtd">
<svg version="1.1" id="Stopwatch" xmlns="http://www.w3.org/2000/svg" xmlns:xlink="http://www.w3.org/1999/xlink" x="0px" y="0px"
	 viewBox="0 0 700 520" enable-background="new 0 0 700 520" xml:space="preserve">
<path opacity="0.5" fill="#78869F" d="M281.8,175.4c-11.6,7.2,31.1,110.3,41.5,127.1c9.1,14.8,28.4,19.3,43.1,10.2
	c14.8-9.2,19.4-28.4,10.3-43.2C366.4,252.7,293.4,168.2,281.8,175.4z M273.1,62.5c24.1-8.4,50-13.1,76.9-13.1s52.8,4.7,76.9,13.1
	c8.6,3,19.9-3,14.9-15.9c-3.7-9.4-7.2-18.5-8.6-22.2c-3.4-8.8-15.6-16.1-20.9-17.3c-20.1-4.5-40.9-7-62.3-7s-42.2,2.5-62.3,7
	c-5.3,1.2-17.5,8.5-20.9,17.3c-1.4,3.7-5,12.9-8.6,22.2C253.2,59.5,264.5,65.4,273.1,62.5z M586.5,82.8c-5-6-10.3-11.8-15.9-17.5
	c-5.6-5.6-11.5-10.9-17.4-15.9c-4-3.4-15.7-6.1-23.1,1.3c-7.4,7.4-42.8,42.8-42.8,42.8c10.5,7.5,20.6,15.7,30,25.1
	c9.4,9.4,17.6,19.6,25.1,30c0,0,35.4-35.4,42.8-42.8C592.7,98.5,589.9,86.8,586.5,82.8z M350,75.4c-116.3,0-210.6,94.3-210.6,210.6
	c0,116.4,94.3,210.6,210.6,210.6c116.3,0,210.6-94.3,210.6-210.6C560.6,169.7,466.3,75.4,350,75.4z M350,444.6
	c-87.6,0-158.6-71-158.6-158.6s71-158.6,158.6-158.6s158.6,71,158.6,158.6C508.6,373.6,437.6,444.6,350,444.6z"/>
</svg>
